<svg width="43" height="43" viewBox="0 0 43 43"  xmlns="http://www.w3.org/2000/svg">
  <g clip-path="url(#clip0_2_173)">
    <path d="M36.2579 7.30741C33.568 6.07319 30.6836 5.16386 27.6677 4.64305C27.6127 4.633 27.5579 4.65812 27.5296 4.70836C27.1586 5.36816 26.7477 6.22892 26.4599 6.90547C23.2161 6.41984 19.989 6.41984 16.8117 6.90547C16.5239 6.21388 16.0981 5.36816 15.7254 4.70836C15.6971 4.6598 15.6423 4.63468 15.5873 4.64305C12.5731 5.1622 9.68863 6.07152 6.99709 7.30741C6.97379 7.31746 6.95382 7.33422 6.94057 7.35597C1.46932 15.5299 -0.0294872 23.5029 0.705776 31.3771C0.709103 31.4156 0.730728 31.4525 0.760671 31.4759C4.37044 34.1268 7.86713 35.7362 11.2989 36.8029C11.3538 36.8197 11.412 36.7996 11.4469 36.7543C12.2587 35.6458 12.9824 34.4769 13.6028 33.2476C13.6394 33.1756 13.6045 33.0902 13.5296 33.0618C12.3818 32.6264 11.2889 32.0955 10.2376 31.4926C10.1544 31.4441 10.1477 31.3251 10.2242 31.2682C10.4455 31.1024 10.6668 30.9299 10.878 30.7558C10.9163 30.724 10.9695 30.7172 11.0145 30.7373C17.9212 33.8907 25.3986 33.8907 32.2239 30.7373C32.2688 30.7156 32.3221 30.7223 32.362 30.7541C32.5733 30.9283 32.7945 31.1024 33.0174 31.2682C33.0939 31.3251 33.0889 31.4441 33.0058 31.4926C31.9545 32.1072 30.8615 32.6264 29.7121 33.0601C29.6372 33.0886 29.6039 33.1756 29.6406 33.2476C30.2743 34.4751 30.9979 35.644 31.7947 36.7527C31.828 36.7996 31.8879 36.8197 31.9428 36.8029C35.3912 35.7362 38.8879 34.1268 42.4976 31.4759C42.5293 31.4525 42.5492 31.4173 42.5526 31.3788C43.4325 22.2754 41.0787 14.3677 36.3128 7.35764C36.3011 7.33422 36.2812 7.31746 36.2579 7.30741ZM14.6342 26.5825C12.5548 26.5825 10.8414 24.6735 10.8414 22.329C10.8414 19.9844 12.5216 18.0754 14.6342 18.0754C16.7634 18.0754 18.4602 20.0012 18.4269 22.329C18.4269 24.6735 16.7468 26.5825 14.6342 26.5825ZM28.6574 26.5825C26.578 26.5825 24.8647 24.6735 24.8647 22.329C24.8647 19.9844 26.5448 18.0754 28.6574 18.0754C30.7867 18.0754 32.4834 20.0012 32.4502 22.329C32.4502 24.6735 30.7867 26.5825 28.6574 26.5825Z" fill="white" />
  </g>
  <defs>
    <clipPath id="clip0_2_173">
      <rect width="42.2029" height="42.2029"  transform="translate(0.531372)"/>
    </clipPath>
  </defs>
</svg>
