<svg width="43" height="43" viewBox="0 0 43 43" fill="none" xmlns="http://www.w3.org/2000/svg">
<g clip-path="url(#clip0_2_174)">
<path d="M21.8986 3.79991C27.5366 3.79991 28.2043 3.82464 30.4216 3.92355C32.4823 4.01422 33.595 4.36042 34.3369 4.64891C35.3178 5.02808 36.0266 5.48967 36.7602 6.22328C37.5021 6.96513 37.9554 7.66576 38.3346 8.64665C38.6231 9.3885 38.9693 10.5095 39.06 12.562C39.1589 14.7875 39.1836 15.4552 39.1836 21.085C39.1836 26.723 39.1589 27.3907 39.06 29.608C38.9693 31.6687 38.6231 32.7814 38.3346 33.5233C37.9554 34.5042 37.4939 35.213 36.7602 35.9466C36.0184 36.6885 35.3178 37.1418 34.3369 37.521C33.595 37.8095 32.474 38.1557 30.4216 38.2464C28.196 38.3453 27.5284 38.37 21.8986 38.37C16.2605 38.37 15.5929 38.3453 13.3756 38.2464C11.3149 38.1557 10.2021 37.8095 9.46025 37.521C8.47936 37.1418 7.77049 36.6802 7.03688 35.9466C6.29504 35.2048 5.84168 34.5042 5.46252 33.5233C5.17402 32.7814 4.82783 31.6604 4.73716 29.608C4.63824 27.3824 4.61351 26.7148 4.61351 21.085C4.61351 15.4469 4.63824 14.7793 4.73716 12.562C4.82783 10.5013 5.17402 9.3885 5.46252 8.64665C5.84168 7.66576 6.30328 6.95688 7.03688 6.22328C7.77873 5.48143 8.47936 5.02808 9.46025 4.64891C10.2021 4.36042 11.3231 4.01422 13.3756 3.92355C15.5929 3.82464 16.2605 3.79991 21.8986 3.79991ZM21.8986 0C16.1699 0 15.4527 0.0247283 13.2025 0.123641C10.9604 0.222554 9.41904 0.585235 8.08371 1.10453C6.69069 1.64855 5.51197 2.36567 4.3415 3.54438C3.16279 4.71485 2.44567 5.89357 1.90165 7.27835C1.38235 8.62192 1.01967 10.1551 0.92076 12.3971C0.821847 14.6556 0.797119 15.3727 0.797119 21.1014C0.797119 26.8302 0.821847 27.5473 0.92076 29.7975C1.01967 32.0396 1.38235 33.581 1.90165 34.9163C2.44567 36.3093 3.16279 37.488 4.3415 38.6585C5.51197 39.829 6.69069 40.5543 8.07547 41.0901C9.41904 41.6094 10.9522 41.9721 13.1942 42.071C15.4445 42.1699 16.1616 42.1946 21.8903 42.1946C27.619 42.1946 28.3362 42.1699 30.5864 42.071C32.8285 41.9721 34.3699 41.6094 35.7052 41.0901C37.09 40.5543 38.2687 39.829 39.4391 38.6585C40.6096 37.488 41.335 36.3093 41.8708 34.9245C42.39 33.581 42.7527 32.0478 42.8516 29.8058C42.9506 27.5555 42.9753 26.8384 42.9753 21.1097C42.9753 15.381 42.9506 14.6639 42.8516 12.4136C42.7527 10.1716 42.39 8.63016 41.8708 7.29484C41.3515 5.89357 40.6343 4.71485 39.4556 3.54438C38.2852 2.37391 37.1064 1.64855 35.7217 1.11277C34.3781 0.593478 32.8449 0.230797 30.6029 0.131884C28.3444 0.0247283 27.6273 0 21.8986 0Z" fill="white"/>
<path d="M21.8986 10.2622C15.9143 10.2622 11.0594 15.1172 11.0594 21.1014C11.0594 27.0857 15.9143 31.9406 21.8986 31.9406C27.8828 31.9406 32.7378 27.0857 32.7378 21.1014C32.7378 15.1172 27.8828 10.2622 21.8986 10.2622ZM21.8986 28.1325C18.0162 28.1325 14.8675 24.9838 14.8675 21.1014C14.8675 17.2191 18.0162 14.0704 21.8986 14.0704C25.7809 14.0704 28.9296 17.2191 28.9296 21.1014C28.9296 24.9838 25.7809 28.1325 21.8986 28.1325Z" fill="white"/>
<path d="M35.6969 9.83351C35.6969 11.2348 34.5594 12.364 33.1664 12.364C31.7652 12.364 30.6359 11.2265 30.6359 9.83351C30.6359 8.43224 31.7734 7.30298 33.1664 7.30298C34.5594 7.30298 35.6969 8.44048 35.6969 9.83351Z" fill="white"/>
</g>
<defs>
<clipPath id="clip0_2_174">
<rect width="42.2029" height="42.2029" fill="white" transform="translate(0.797119)"/>
</clipPath>
</defs>
</svg>
